<svg xmlns="http://www.w3.org/2000/svg" width="320" height="320" viewBox="0 0 320 320" role="img" aria-labelledby="title desc">
  <title id="title">Fake QR Code</title>
  <desc id="desc">Placeholder QR code for demo payment flow.</desc>
  <rect width="320" height="320" fill="#fff" />
  <rect x="16" y="16" width="96" height="96" fill="#000" />
  <rect x="28" y="28" width="72" height="72" fill="#fff" />
  <rect x="40" y="40" width="48" height="48" fill="#000" />

  <rect x="208" y="16" width="96" height="96" fill="#000" />
  <rect x="220" y="28" width="72" height="72" fill="#fff" />
  <rect x="232" y="40" width="48" height="48" fill="#000" />

  <rect x="16" y="208" width="96" height="96" fill="#000" />
  <rect x="28" y="220" width="72" height="72" fill="#fff" />
  <rect x="40" y="232" width="48" height="48" fill="#000" />

  <rect x="136" y="136" width="12" height="12" fill="#000" />
  <rect x="160" y="136" width="12" height="12" fill="#000" />
  <rect x="184" y="136" width="12" height="12" fill="#000" />
  <rect x="136" y="160" width="12" height="12" fill="#000" />
  <rect x="184" y="160" width="12" height="12" fill="#000" />
  <rect x="136" y="184" width="12" height="12" fill="#000" />
  <rect x="160" y="184" width="12" height="12" fill="#000" />
  <rect x="184" y="184" width="12" height="12" fill="#000" />

  <rect x="124" y="16" width="12" height="12" fill="#000" />
  <rect x="148" y="16" width="12" height="12" fill="#000" />
  <rect x="172" y="16" width="12" height="12" fill="#000" />
  <rect x="124" y="40" width="12" height="12" fill="#000" />
  <rect x="172" y="40" width="12" height="12" fill="#000" />
  <rect x="124" y="64" width="12" height="12" fill="#000" />
  <rect x="148" y="64" width="12" height="12" fill="#000" />
  <rect x="172" y="64" width="12" height="12" fill="#000" />

  <rect x="208" y="124" width="12" height="12" fill="#000" />
  <rect x="232" y="124" width="12" height="12" fill="#000" />
  <rect x="256" y="124" width="12" height="12" fill="#000" />
  <rect x="208" y="148" width="12" height="12" fill="#000" />
  <rect x="256" y="148" width="12" height="12" fill="#000" />
  <rect x="208" y="172" width="12" height="12" fill="#000" />
  <rect x="232" y="172" width="12" height="12" fill="#000" />
  <rect x="256" y="172" width="12" height="12" fill="#000" />

  <rect x="124" y="232" width="12" height="12" fill="#000" />
  <rect x="148" y="232" width="12" height="12" fill="#000" />
  <rect x="172" y="232" width="12" height="12" fill="#000" />
  <rect x="124" y="256" width="12" height="12" fill="#000" />
  <rect x="172" y="256" width="12" height="12" fill="#000" />
  <rect x="124" y="280" width="12" height="12" fill="#000" />
  <rect x="148" y="280" width="12" height="12" fill="#000" />
  <rect x="172" y="280" width="12" height="12" fill="#000" />

  <text x="160" y="314" text-anchor="middle" font-family="Arial, sans-serif" font-size="12" fill="#111">DEMO QR</text>
</svg>
